PathFileType	4	(x/y/z)	S10_SL_Cal_T01
DataRate	CameraRate	NumFrames	NumMarkers	Units	OrigDataRate	OrigDataStartFrame	OrigNumFrames
240	240	5	51	mm	240	1501	2400
Frame#	Time	Sternum			R.Acromium			L.Acromium			Top.Head			R.ASIS			L.ASIS			R.PSIS			L.PSIS			R.Great.Tro			L.Great.Tro			R.Iliac.Crest			L.Iliac.Crest			V.Sacral			R.Thigh.Upper.Post			R.Thigh.Lower.Ant			R.Thigh.Lower.Post			R.Thigh.Upper.Ant			R.Knee.Lat			R.Knee.Med			R.Shank.Upper.Post			R.Shank.Lower.Ant			R.Shank.Lower.Post			R.Shank.Upper.Ant			R.Ankle.Lat			R.Ankle.Med			R.Heel.Upper			R.Heel.Med			R.Heel.Lat			R.Toe.Lat			R.Toe.Med			R.Toe.Tip			L.Thigh.Upper.Post			L.Thigh.Lower.Ant			L.Thigh.Lower.Post			L.Thigh.Upper.Ant			L.Knee.Lat			L.Knee.Med			L.Shank.Upper.Post			L.Shank.Lower.Ant			L.Shank.Lower.Post			L.Shank.Upper.Ant			L.Ankle.Lat			L.Ankle.Med			L.Heel.Upper			L.Heel.Med			L.Heel.Lat			L.Toe.Lat			L.Toe.Med			L.Toe.Tip			Cervical.Spine			Back			
		X1	Y1	Z1	X2	Y2	Z2	X3	Y3	Z3	X4	Y4	Z4	X5	Y5	Z5	X6	Y6	Z6	X7	Y7	Z7	X8	Y8	Z8	X9	Y9	Z9	X10	Y10	Z10	X11	Y11	Z11	X12	Y12	Z12	X13	Y13	Z13	X14	Y14	Z14	X15	Y15	Z15	X16	Y16	Z16	X17	Y17	Z17	X18	Y18	Z18	X19	Y19	Z19	X20	Y20	Z20	X21	Y21	Z21	X22	Y22	Z22	X23	Y23	Z23	X24	Y24	Z24	X25	Y25	Z25	X26	Y26	Z26	X27	Y27	Z27	X28	Y28	Z28	X29	Y29	Z29	X30	Y30	Z30	X31	Y31	Z31	X32	Y32	Z32	X33	Y33	Z33	X34	Y34	Z34	X35	Y35	Z35	X36	Y36	Z36	X37	Y37	Z37	X38	Y38	Z38	X39	Y39	Z39	X40	Y40	Z40	X41	Y41	Z41	X42	Y42	Z42	X43	Y43	Z43	X44	Y44	Z44	X45	Y45	Z45	X46	Y46	Z46	X47	Y47	Z47	X48	Y48	Z48	X49	Y49	Z49	X50	Y50	Z50	X51	Y51	Z51	

1501	6.25	767.24	1308.4	326.5	616.26	1448.8	476.85	623.71	1483.1	171.39	649.41	1774	349.99	719.06	1008	432.73	723.49	1028	197.91	524.08	1056.5	344.65	532.02	1062.8	263.35	638.22	937.92	501.93	654.7	963.81	136.96	630.16	1099.7	478.58	660.2	1111.6	170.14	500.84	1030.1	306.46	621.58	728.04	506.54	662.32	640.85	468.88	599.68	641.35	499.34	686.31	729.23	471.27	577.71	517.38	462.5	567.46	515.08	335.28	510.28	295.77	474.91	581.6	237.56	465.75	513.9	221.99	472.19	580.85	314.27	468.13	542.89	108.27	455.88	566.38	113.22	380.74	493.99	64.011	406.16	507.76	37.087	380.42	494.52	39.932	440.71	659.65	39.313	508.61	702.03	44.655	404.38	754.75	61.007	454.29	569.45	709.5	116.35	625.73	613.78	131.54	549.71	616.16	126.92	647.27	700.36	123.56	572	522.88	129.44	562.63	505.67	256.84	513.88	308.02	115.22	587.01	225.68	129.84	522.89	230.95	122.57	578.26	302.04	122.37	564.41	103.63	135.3	578.96	111.24	220.3	500.22	76.649	176.07	511.72	45.742	209.72	508.17	46.316	145.31	684.56	41.422	109.07	711.35	47.512	215.58	766.88	60.487	169.62	549.86	1506.8	332.97	489.28	1291.2	312.75
1502	6.2542	767.25	1308.4	326.51	616.27	1448.8	476.86	623.72	1483.1	171.4	649.43	1774	350.01	719.06	1008	432.73	723.48	1028	197.91	524.07	1056.5	344.66	532.01	1062.8	263.35	638.21	937.92	501.94	654.69	963.81	136.97	630.16	1099.7	478.58	660.2	1111.6	170.15	500.83	1030.1	306.47	621.57	728.04	506.54	662.31	640.85	468.89	599.67	641.35	499.34	686.3	729.23	471.28	577.7	517.38	462.5	567.45	515.07	335.28	510.27	295.77	474.91	581.6	237.56	465.75	513.89	221.99	472.19	580.84	314.27	468.13	542.89	108.27	455.88	566.38	113.22	380.74	493.99	64.011	406.16	507.76	37.086	380.42	494.52	39.931	440.71	659.65	39.312	508.61	702.03	44.656	404.38	754.75	61.007	454.29	569.43	709.5	116.35	625.71	613.78	131.54	549.7	616.16	126.92	647.25	700.37	123.56	571.99	522.88	129.45	562.63	505.67	256.85	513.87	308.02	115.22	587	225.68	129.84	522.88	230.95	122.57	578.26	302.04	122.38	564.41	103.63	135.3	578.96	111.24	220.31	500.22	76.649	176.07	511.72	45.74	209.72	508.17	46.315	145.31	684.56	41.422	109.07	711.35	47.511	215.57	766.88	60.487	169.62	549.87	1506.8	332.98	489.28	1291.2	312.75
1503	6.2583	767.26	1308.4	326.51	616.28	1448.8	476.87	623.74	1483.1	171.41	649.45	1774	350.03	719.05	1008	432.74	723.47	1028	197.91	524.07	1056.6	344.66	532.01	1062.8	263.36	638.2	937.92	501.94	654.68	963.81	136.97	630.16	1099.7	478.59	660.2	1111.6	170.16	500.82	1030.1	306.48	621.56	728.04	506.54	662.3	640.84	468.89	599.65	641.35	499.34	686.29	729.23	471.28	577.69	517.38	462.5	567.45	515.07	335.28	510.27	295.77	474.91	581.59	237.56	465.75	513.89	221.99	472.19	580.83	314.27	468.13	542.89	108.27	455.88	566.38	113.21	380.74	493.99	64.01	406.16	507.76	37.086	380.42	494.52	39.931	440.71	659.65	39.311	508.61	702.03	44.656	404.38	754.75	61.007	454.29	569.41	709.5	116.36	625.7	613.77	131.54	549.68	616.16	126.93	647.24	700.37	123.56	571.98	522.88	129.45	562.63	505.67	256.85	513.87	308.02	115.22	587	225.68	129.84	522.88	230.95	122.57	578.25	302.04	122.38	564.4	103.63	135.3	578.96	111.24	220.31	500.22	76.649	176.07	511.72	45.739	209.72	508.17	46.314	145.31	684.56	41.421	109.07	711.35	47.51	215.57	766.88	60.487	169.62	549.89	1506.8	332.99	489.29	1291.2	312.75
1504	6.2625	767.27	1308.4	326.51	616.3	1448.8	476.88	623.75	1483.1	171.42	649.46	1774	350.05	719.05	1008	432.74	723.46	1028	197.91	524.06	1056.6	344.67	532	1062.8	263.37	638.19	937.92	501.94	654.66	963.81	136.97	630.16	1099.7	478.59	660.21	1111.6	170.16	500.82	1030.2	306.49	621.54	728.04	506.55	662.28	640.84	468.9	599.63	641.35	499.34	686.28	729.22	471.29	577.68	517.38	462.5	567.44	515.07	335.28	510.26	295.77	474.91	581.58	237.57	465.76	513.88	221.99	472.19	580.83	314.27	468.13	542.89	108.27	455.88	566.38	113.21	380.74	493.99	64.01	406.16	507.76	37.085	380.41	494.52	39.93	440.71	659.65	39.309	508.61	702.03	44.657	404.38	754.75	61.007	454.29	569.4	709.5	116.36	625.68	613.77	131.54	549.66	616.15	126.93	647.22	700.37	123.56	571.97	522.88	129.45	562.62	505.67	256.85	513.86	308.02	115.22	586.99	225.68	129.83	522.87	230.95	122.57	578.24	302.04	122.38	564.4	103.62	135.3	578.96	111.24	220.3	500.22	76.649	176.07	511.72	45.737	209.72	508.16	46.314	145.31	684.56	41.42	109.07	711.34	47.509	215.57	766.88	60.488	169.62	549.9	1506.8	333	489.29	1291.2	312.75
1505	6.2667	767.28	1308.4	326.51	616.31	1448.8	476.89	623.77	1483.1	171.43	649.48	1774	350.07	719.04	1008	432.74	723.45	1028	197.91	524.06	1056.6	344.67	531.99	1062.8	263.38	638.18	937.92	501.94	654.65	963.81	136.98	630.16	1099.7	478.59	660.21	1111.6	170.17	500.81	1030.2	306.49	621.52	728.04	506.55	662.27	640.84	468.91	599.61	641.35	499.34	686.26	729.22	471.3	577.67	517.38	462.51	567.44	515.07	335.28	510.26	295.77	474.91	581.58	237.57	465.76	513.88	221.99	472.19	580.82	314.27	468.13	542.89	108.26	455.88	566.38	113.21	380.75	493.99	64.01	406.16	507.76	37.084	380.41	494.52	39.929	440.71	659.65	39.308	508.61	702.03	44.657	404.38	754.75	61.007	454.29	569.38	709.5	116.37	625.66	613.77	131.54	549.65	616.15	126.94	647.2	700.37	123.56	571.96	522.88	129.45	562.62	505.67	256.85	513.85	308.02	115.23	586.99	225.69	129.83	522.87	230.95	122.57	578.24	302.04	122.38	564.4	103.62	135.3	578.96	111.24	220.3	500.22	76.648	176.07	511.72	45.736	209.72	508.16	46.313	145.31	684.56	41.42	109.07	711.34	47.508	215.57	766.88	60.488	169.62	549.91	1506.8	333.01	489.3	1291.2	312.76
